<?xml version="1.0" encoding="UTF-8"?>
<!-- Generator: Adobe Illustrator 21.1.0, SVG Export Plug-In . SVG Version: 6.00 Build 0)  -->
<svg version="1.1" id="Layer_1" xmlns="http://www.w3.org/2000/svg" xmlns:xlink="http://www.w3.org/1999/xlink" x="0px" y="0px" viewBox="0 0 1788.2 804.1" style="enable-background:new 0 0 1788.2 804.1;" xml:space="preserve">
<style type="text/css">
	.st0{fill:#1A1A1A;}
	.st1{clip-path:url(#SVGID_2_);fill:#1A1A1A;}
	.st2{clip-path:url(#SVGID_2_);fill:#5C202F;}
	.st3{clip-path:url(#SVGID_2_);fill:#990020;}
	.st4{clip-path:url(#SVGID_2_);fill:#D9000B;}
	.st5{clip-path:url(#SVGID_2_);fill:#BB969B;}
	.st6{clip-path:url(#SVGID_2_);fill:#FFFFFF;}
</style>
<rect x="660.3" y="61.5" class="st0" width="79" height="79.4"/>
<rect x="662.5" y="214.4" class="st0" width="74.5" height="372.7"/>
<g>
	<defs>
		<rect id="SVGID_1_" x="-113.7" y="-190.8" width="2000" height="1200"/>
	</defs>
	<clipPath id="SVGID_2_">
		<use xlink:href="#SVGID_1_" style="overflow:visible;"/>
	</clipPath>
	<path class="st1" d="M975.3,591.5c-60.7,0-111.8-10.2-155.7-53.6l49-49.2c30,30.8,70.2,38.9,106.7,38.9c45.3,0,81.1-16.1,81.1-51.5   c0-24.9-13.9-41.1-49.7-44l-59.1-5.2C878.2,421,838,389.4,838,324c0-72.8,62.1-113.9,139.5-113.9c55.5,0,103.1,11.7,137.4,41.9   l-46.7,47.8c-23.4-19.9-56.3-27.2-91.4-27.2c-44.5,0-67.2,19.9-67.2,47.8c0,22,11.7,38.9,51.2,42.6l58.5,5.2   c69.4,5.8,110.3,38.9,110.3,105.1C1129.5,551.1,1063.8,591.5,975.3,591.5"/>
	<path class="st1" d="M1319.6,587.2c-70.8,0-101.6-47.8-101.6-102.9V63.8h74.5v416.1c0,28.6,10.3,43.3,40.2,43.3h32.9v64H1319.6z"/>
	<path class="st1" d="M1648.6,587.2v-33.9c-27,27.2-52.6,38.2-98.6,38.2c-46.1,0-76.8-11-99.5-33.7c-19-19.9-29.2-48.5-29.2-80.1   c0-62.5,43.1-107.4,127.9-107.4h97.9v-26.4c0-47-23.3-69.8-81.1-69.8c-40.9,0-60.7,9.6-81.1,36l-49-46.3   c35.1-41.1,71.6-53.7,133-53.7c101.6,0,152.8,43.4,152.8,127.9v249.2H1648.6z M1647.1,422.5h-86.9c-43.8,0-66.5,19.9-66.5,53.6   c0,33.9,21.2,53,68,53c28.5,0,49.7-2.2,69.4-21.3c11-11.1,16.1-28.7,16.1-55.2V422.5z"/>
	<path class="st2" d="M50.8,675h9.6v9.5h-9.6V675z M51.1,693.4h9.1v44.8h-9.1V693.4z"/>
	<path class="st2" d="M101.8,738.2V711c0-7-4-10-9-10c-5.1,0-9.3,3.1-9.3,10v27.3h-9v-44.8h8.9v4.5c3.1-3.3,7.4-5.1,11.9-5.1   c4.6,0,8.4,1.5,11,4.1c3.5,3.4,4.5,7.6,4.5,12.7v28.6H101.8z"/>
	<path class="st2" d="M139.1,738.8c-7.3,0-13.6-1.2-18.8-6.4l5.9-6c3.6,3.7,8.5,4.7,12.9,4.7c5.5,0,9.8-1.9,9.8-6.1c0-3-1.7-5-6-5.3   l-7.2-0.6c-8.4-0.7-13.3-4.6-13.3-12.4c0-8.8,7.5-13.8,16.9-13.8c6.7,0,12.5,1.4,16.6,5.1l-5.6,5.7c-2.9-2.4-6.8-3.3-11-3.3   c-5.4,0-8.2,2.3-8.2,5.7c0,2.6,1.4,4.7,6.2,5.1l7.1,0.7c8.4,0.7,13.3,4.6,13.3,12.6C157.8,733.9,149.9,738.8,139.1,738.8"/>
	<path class="st2" d="M181.3,738.2c-8.4,0-12.3-6-12.3-12.4v-24.7h-5.1v-6.9h5.1v-13.6h9.1v13.6h8.6v6.9H178v24.2   c0,3.3,1.6,5.2,4.9,5.2h3.7v7.6H181.3z"/>
	<path class="st2" d="M197.8,675h9.5v9.5h-9.5V675z M198.2,693.4h9v44.8h-9V693.4z"/>
	<path class="st2" d="M234.8,738.2c-8.4,0-12.3-6-12.3-12.4v-24.7h-5.1v-6.9h5.1v-13.6h9v13.6h8.7v6.9h-8.7v24.2   c0,3.3,1.6,5.2,5,5.2h3.7v7.6H234.8z"/>
	<path class="st2" d="M278.8,738.2v-4.5c-3.1,3.3-7.4,5-12,5c-4.6,0-8.4-1.5-11-4.1c-3.5-3.3-4.5-7.6-4.5-12.6v-28.6h9v27.3   c0,7,4,10,9.1,10c5,0,9.3-3.1,9.3-10v-27.3h9v44.8H278.8z"/>
	<path class="st2" d="M315.3,738.2c-8.4,0-12.3-6-12.3-12.4v-24.7h-5.1v-6.9h5.1v-13.6h9v13.6h8.6v6.9H312v24.2   c0,3.3,1.6,5.2,4.9,5.2h3.7v7.6H315.3z"/>
	<path class="st2" d="M361.7,733.5c-2.9,3-7.4,5.3-13.5,5.3c-6.1,0-10.4-2.3-13.4-5.3c-4.2-4.4-5.3-10.1-5.3-17.7   c0-7.5,1.1-13.2,5.3-17.6c2.9-3,7.3-5.3,13.4-5.3c6.1,0,10.6,2.3,13.5,5.3c4.2,4.4,5.3,10.1,5.3,17.6   C367,723.4,365.9,729.1,361.7,733.5 M354.9,703.5c-1.7-1.7-4-2.6-6.6-2.6c-2.6,0-4.9,0.9-6.5,2.6c-2.8,2.7-3.1,7.5-3.1,12.3   c0,4.9,0.4,9.6,3.1,12.3c1.7,1.7,3.9,2.6,6.5,2.6c2.7,0,5-1,6.6-2.6c2.8-2.7,3.1-7.4,3.1-12.3C358,711,357.6,706.2,354.9,703.5"/>
	<path class="st2" d="M432.1,734.8c-2.5,2.4-6.4,4-10.9,4c-4.8,0-8.5-1.2-11.8-5.1v22.7h-9v-62.9h8.8v4.7c3.4-4.1,7-5.3,11.9-5.3   c4.5,0,8.4,1.5,10.9,4c4.5,4.5,5,12.1,5,18.9C437.1,722.6,436.6,730.3,432.1,734.8 M418.8,700.9c-8.1,0-9.4,6.9-9.4,14.8   c0,8,1.2,15,9.4,15c8.2,0,9.3-7,9.3-15C428.1,707.8,427,700.9,418.8,700.9"/>
	<path class="st2" d="M479.4,733.5c-3,3-7.4,5.3-13.5,5.3c-6.1,0-10.4-2.3-13.4-5.3c-4.2-4.4-5.3-10.1-5.3-17.7   c0-7.5,1.1-13.2,5.3-17.6c3-3,7.3-5.3,13.4-5.3c6.1,0,10.5,2.3,13.5,5.3c4.2,4.4,5.3,10.1,5.3,17.6   C484.6,723.4,483.6,729.1,479.4,733.5 M472.5,703.5c-1.7-1.7-4-2.6-6.6-2.6c-2.6,0-4.9,0.9-6.5,2.6c-2.8,2.7-3.1,7.5-3.1,12.3   c0,4.9,0.3,9.6,3.1,12.3c1.7,1.7,3.9,2.6,6.5,2.6c2.7,0,5-1,6.6-2.6c2.7-2.7,3.1-7.4,3.1-12.3C475.6,711,475.2,706.2,472.5,703.5"/>
	<path class="st2" d="M508.9,738.2c-8.6,0-12.3-5.7-12.3-12.3v-50.5h9v50c0,3.4,1.2,5.2,4.8,5.2h4v7.6H508.9z"/>
	<path class="st2" d="M524.1,675h9.5v9.5h-9.5V675z M524.3,693.4h9.1v44.8h-9.1V693.4z"/>
	<path class="st2" d="M561,738.2c-8.4,0-12.3-6-12.3-12.4v-24.7h-5.1v-6.9h5.1v-13.6h9v13.6h8.7v6.9h-8.7v24.2   c0,3.3,1.6,5.2,4.9,5.2h3.7v7.6H561z"/>
	<path class="st2" d="M584.6,718.4c0,7.7,4,12.6,11.4,12.6c5,0,7.7-1.4,10.9-4.6l5.7,5.4c-4.6,4.6-8.9,7-16.8,7   c-11.2,0-20.2-5.9-20.2-23c0-14.5,7.6-22.9,19-22.9c12,0,19,8.9,19,21.6v4H584.6z M603.5,706.1c-1.4-3.4-4.6-5.6-8.8-5.6   c-4.3,0-7.6,2.3-9,5.6c-0.9,2-1,3.4-1.1,6.1h20.2C604.6,709.4,604.4,708.1,603.5,706.1 M597.1,685.3h-6.8l6.6-14.3h10L597.1,685.3z   "/>
	<path class="st2" d="M643.3,738.8c-10.1,0-20-6.2-20-23c0-16.7,9.9-22.9,20-22.9c6.2,0,10.5,1.8,14.7,6.2l-6.2,6.1   c-2.8-3.1-5-4.2-8.5-4.2c-3.5,0-6.4,1.4-8.4,4c-1.9,2.5-2.6,5.6-2.6,10.9c0,5.2,0.7,8.6,2.6,11c2,2.5,4.9,4,8.4,4   c3.5,0,5.7-1.1,8.5-4.2l6.2,5.9C653.8,736.9,649.5,738.8,643.3,738.8"/>
	<path class="st2" d="M695.8,738.2V711c0-7-4-10-9.1-10c-5,0-9.3,3.1-9.3,10v27.3h-9v-44.8h8.9v4.5c3.1-3.3,7.4-5.1,11.9-5.1   c4.6,0,8.5,1.5,11.1,4.1c3.4,3.4,4.5,7.6,4.5,12.7v28.6H695.8z"/>
	<path class="st2" d="M718.4,675h9.5v9.5h-9.5V675z M718.7,693.4h9.1v44.8h-9.1V693.4z"/>
	<path class="st2" d="M759.7,738.8c-10.1,0-20-6.2-20-23c0-16.7,9.9-22.9,20-22.9c6.2,0,10.5,1.8,14.8,6.2l-6.2,6.1   c-2.8-3.1-5.1-4.2-8.6-4.2c-3.4,0-6.3,1.4-8.3,4c-1.9,2.5-2.7,5.6-2.7,10.9c0,5.2,0.7,8.6,2.7,11c2,2.5,4.9,4,8.3,4   c3.5,0,5.7-1.1,8.6-4.2l6.2,5.9C770.2,736.9,765.9,738.8,759.7,738.8"/>
	<path class="st2" d="M813.5,733.5c-3,3-7.4,5.3-13.5,5.3c-6.2,0-10.4-2.3-13.3-5.3c-4.3-4.4-5.3-10.1-5.3-17.7   c0-7.5,1-13.2,5.3-17.6c2.9-3,7.2-5.3,13.3-5.3c6.1,0,10.5,2.3,13.5,5.3c4.2,4.4,5.2,10.1,5.2,17.6   C818.7,723.4,817.7,729.1,813.5,733.5 M806.6,703.5c-1.7-1.7-3.9-2.6-6.6-2.6c-2.7,0-4.9,0.9-6.6,2.6c-2.8,2.7-3.1,7.5-3.1,12.3   c0,4.9,0.3,9.6,3.1,12.3c1.7,1.7,3.9,2.6,6.6,2.6c2.7,0,4.9-1,6.6-2.6c2.8-2.7,3.1-7.4,3.1-12.3C809.6,711,809.4,706.2,806.6,703.5   "/>
	<path class="st2" d="M877.9,738.2v-4.7c-3.3,4.1-6.9,5.3-11.8,5.3c-4.5,0-8.5-1.5-10.9-4c-4.5-4.5-5.1-12.2-5.1-19   c0-6.8,0.5-14.4,5.1-18.9c2.5-2.5,6.3-4,10.9-4c4.8,0,8.5,1.2,11.8,5.1v-22.6h9v62.9H877.9z M868.4,700.9c-8.2,0-9.4,6.9-9.4,14.8   c0,8,1.3,15,9.4,15c8.1,0,9.3-7,9.3-15C877.7,707.8,876.6,700.9,868.4,700.9"/>
	<path class="st2" d="M907.7,718.4c0,7.7,4.1,12.6,11.4,12.6c5,0,7.7-1.4,10.9-4.6l5.8,5.4c-4.6,4.6-8.9,7-16.8,7   c-11.2,0-20.2-5.9-20.2-23c0-14.5,7.5-22.9,19-22.9c12,0,19,8.9,19,21.6v4H907.7z M926.6,706.1c-1.4-3.4-4.6-5.6-8.8-5.6   c-4.2,0-7.5,2.3-8.9,5.6c-1,2-1.2,3.4-1.2,6.1h20.2C927.7,709.4,927.5,708.1,926.6,706.1"/>
	<path class="st2" d="M984.9,756.9c-6.8,0-11.1-1.6-15.8-5.9l5.7-5.7c2.8,2.6,5.3,4,9.7,4c7.7,0,10.6-5.4,10.6-11.4V732   c-3.3,3.9-7,5.1-11.6,5.1c-4.5,0-8.3-1.4-10.7-4c-4.4-4.2-5.1-10.6-5.1-18.1c0-7.6,0.7-13.9,5.1-18.3c2.4-2.5,6.3-3.9,10.8-3.9   c4.8,0,8.4,1.2,11.8,5.3v-4.7h8.7V738C1004.1,749,996.9,756.9,984.9,756.9 M986,700.9c-8.1,0-9.2,7-9.2,14.1c0,7.1,1.1,14,9.2,14   c8.1,0,9.1-7,9.1-14C995.1,708,994.1,700.9,986,700.9"/>
	<path class="st2" d="M1025.1,718.4c0,7.7,4.1,12.6,11.5,12.6c5,0,7.7-1.4,10.9-4.6l5.7,5.4c-4.6,4.6-8.9,7-16.7,7   c-11.3,0-20.2-5.9-20.2-23c0-14.5,7.4-22.9,19-22.9c12.1,0,19,8.9,19,21.6v4H1025.1z M1044,706.1c-1.4-3.4-4.6-5.6-8.9-5.6   c-4.2,0-7.5,2.3-8.9,5.6c-0.8,2-1,3.4-1.2,6.1h20.2C1045.2,709.4,1044.9,708.1,1044,706.1"/>
	<path class="st2" d="M1080.6,738.8c-7.3,0-13.5-1.2-18.8-6.4l5.9-6c3.6,3.7,8.5,4.7,12.8,4.7c5.5,0,9.9-1.9,9.9-6.1   c0-3-1.8-5-6.1-5.3l-7.1-0.6c-8.4-0.7-13.3-4.6-13.3-12.4c0-8.8,7.5-13.8,16.9-13.8c6.7,0,12.4,1.4,16.6,5.1l-5.7,5.7   c-2.8-2.4-6.8-3.3-11-3.3c-5.4,0-8.2,2.3-8.2,5.7c0,2.6,1.4,4.7,6.2,5.1l7,0.7c8.4,0.7,13.3,4.6,13.3,12.6   C1099.3,733.9,1091.3,738.8,1080.6,738.8"/>
	<path class="st2" d="M1122.7,738.2c-8.4,0-12.3-6-12.3-12.4v-24.7h-5.2v-6.9h5.2v-13.6h9v13.6h8.6v6.9h-8.6v24.2   c0,3.3,1.6,5.2,4.9,5.2h3.7v7.6H1122.7z"/>
	<path class="st2" d="M1163.8,738.2v-4c-3.3,3.3-6.4,4.6-11.9,4.6c-5.6,0-9.3-1.3-12.1-4.1c-2.3-2.3-3.5-5.8-3.5-9.6   c0-7.5,5.2-12.9,15.4-12.9h11.8V709c0-5.7-2.8-8.4-9.8-8.4c-4.9,0-7.4,1.1-9.8,4.3l-5.9-5.6c4.2-4.9,8.7-6.5,16.1-6.5   c12.3,0,18.5,5.2,18.5,15.4v29.9H1163.8z M1160.9,684.2c-2.6,0-4.3-0.7-6.6-2.1c-1.7-1-3.2-1.7-5-1.7c-1.5,0-2.6,0.1-5.1,2.6   l-4.2-4.2c3.9-4,6.3-4.9,9.2-4.9c2.5,0,4.2,0.7,6.6,2.1c1.8,1.1,3.1,1.7,4.8,1.7c1.5,0,2.8-0.3,5.2-2.7l4.2,4.2   C1166.1,683.2,1163.6,684.2,1160.9,684.2 M1163.5,718.4H1153c-5.3,0-8,2.4-8,6.5c0,4,2.6,6.3,8.2,6.3c3.4,0,6-0.3,8.4-2.5   c1.3-1.3,1.9-3.5,1.9-6.6V718.4z"/>
	<path class="st2" d="M1216.5,733.5c-3,3-7.4,5.3-13.5,5.3c-6.1,0-10.4-2.3-13.3-5.3c-4.3-4.4-5.3-10.1-5.3-17.7   c0-7.5,1-13.2,5.3-17.6c2.9-3,7.3-5.3,13.3-5.3c6.1,0,10.5,2.3,13.5,5.3c4.2,4.4,5.2,10.1,5.2,17.6   C1221.7,723.4,1220.7,729.1,1216.5,733.5 M1209.6,703.5c-1.6-1.7-3.9-2.6-6.6-2.6c-2.7,0-4.8,0.9-6.5,2.6   c-2.8,2.7-3.1,7.5-3.1,12.3c0,4.9,0.4,9.6,3.1,12.3c1.7,1.7,3.9,2.6,6.5,2.6c2.7,0,4.9-1,6.6-2.6c2.8-2.7,3.1-7.4,3.1-12.3   C1212.7,711,1212.4,706.2,1209.6,703.5"/>
	<path class="st2" d="M1261.8,718.4c0,7.7,4,12.6,11.3,12.6c5.1,0,7.7-1.4,10.9-4.6l5.7,5.4c-4.7,4.6-8.9,7-16.8,7   c-11.2,0-20.1-5.9-20.1-23c0-14.5,7.5-22.9,18.9-22.9c12,0,19,8.9,19,21.6v4H1261.8z M1280.7,706.1c-1.4-3.4-4.6-5.6-8.9-5.6   c-4.2,0-7.5,2.3-8.9,5.6c-0.9,2-1,3.4-1.1,6.1h20.2C1281.9,709.4,1281.6,708.1,1280.7,706.1"/>
	<path class="st2" d="M1337.4,738.2c-8.4,0-12.3-6-12.3-12.4v-24.7h-5.1v-6.9h5.1v-13.6h9.1v13.6h8.6v6.9h-8.6v24.2   c0,3.3,1.6,5.2,4.9,5.2h3.7v7.6H1337.4z"/>
	<path class="st2" d="M1360.5,718.4c0,7.7,4.1,12.6,11.4,12.6c5.1,0,7.7-1.4,10.9-4.6l5.7,5.4c-4.7,4.6-8.9,7-16.8,7   c-11.2,0-20.2-5.9-20.2-23c0-14.5,7.5-22.9,19-22.9c12,0,19,8.9,19,21.6v4H1360.5z M1379.4,706.1c-1.4-3.4-4.7-5.6-8.9-5.6   c-4.2,0-7.5,2.3-8.9,5.6c-0.9,2-1.1,3.4-1.2,6.1h20.2C1380.6,709.4,1380.3,708.1,1379.4,706.1"/>
	<path class="st2" d="M1419.3,738.8c-10.1,0-20-6.2-20-23c0-16.7,9.9-22.9,20-22.9c6.2,0,10.5,1.8,14.7,6.2l-6.2,6.1   c-2.8-3.1-5.1-4.2-8.5-4.2c-3.5,0-6.4,1.4-8.4,4c-1.9,2.5-2.6,5.6-2.6,10.9c0,5.2,0.7,8.6,2.6,11c2,2.5,4.9,4,8.4,4   c3.4,0,5.7-1.1,8.5-4.2l6.2,5.9C1429.8,736.9,1425.4,738.8,1419.3,738.8"/>
	<path class="st2" d="M1471.7,738.2V711c0-7-3.9-10-9-10c-5.1,0-9.3,3.1-9.3,10v27.3h-9v-44.8h8.8v4.5c3.1-3.3,7.4-5.1,11.9-5.1   c4.6,0,8.4,1.5,11.1,4.1c3.5,3.4,4.5,7.6,4.5,12.7v28.6H1471.7z"/>
	<path class="st2" d="M1524.6,733.5c-2.9,3-7.3,5.3-13.4,5.3c-6.1,0-10.4-2.3-13.3-5.3c-4.3-4.4-5.4-10.1-5.4-17.7   c0-7.5,1.1-13.2,5.4-17.6c2.9-3,7.2-5.3,13.3-5.3c6.1,0,10.5,2.3,13.4,5.3c4.2,4.4,5.3,10.1,5.3,17.6   C1529.9,723.4,1528.8,729.1,1524.6,733.5 M1517.8,703.5c-1.7-1.7-4-2.6-6.6-2.6c-2.7,0-4.9,0.9-6.6,2.6c-2.7,2.7-3.1,7.5-3.1,12.3   c0,4.9,0.4,9.6,3.1,12.3c1.7,1.7,3.9,2.6,6.6,2.6c2.7,0,5-1,6.6-2.6c2.7-2.7,3.1-7.4,3.1-12.3   C1520.9,711,1520.5,706.2,1517.8,703.5"/>
	<path class="st2" d="M1554.2,738.2c-8.6,0-12.3-5.7-12.3-12.3v-50.5h9.1v50c0,3.4,1.2,5.2,4.8,5.2h4v7.6H1554.2z"/>
	<path class="st2" d="M1597.9,733.5c-2.9,3-7.4,5.3-13.5,5.3c-6.1,0-10.5-2.3-13.4-5.3c-4.2-4.4-5.2-10.1-5.2-17.7   c0-7.5,1.1-13.2,5.2-17.6c2.9-3,7.3-5.3,13.4-5.3c6.1,0,10.5,2.3,13.5,5.3c4.2,4.4,5.2,10.1,5.2,17.6   C1603.1,723.4,1602.1,729.1,1597.9,733.5 M1591,703.5c-1.8-1.7-4-2.6-6.6-2.6c-2.7,0-4.9,0.9-6.5,2.6c-2.8,2.7-3.1,7.5-3.1,12.3   c0,4.9,0.4,9.6,3.1,12.3c1.6,1.7,3.9,2.6,6.5,2.6c2.7,0,4.9-1,6.6-2.6c2.7-2.7,3.1-7.4,3.1-12.3   C1594.1,711,1593.8,706.2,1591,703.5"/>
	<path class="st2" d="M1630.4,756.9c-6.8,0-11.2-1.6-15.8-5.9l5.7-5.7c2.8,2.6,5.3,4,9.7,4c7.6,0,10.5-5.4,10.5-11.4V732   c-3.3,3.9-7,5.1-11.6,5.1c-4.5,0-8.2-1.4-10.8-4c-4.2-4.2-4.9-10.6-4.9-18.1c0-7.6,0.7-13.9,4.9-18.3c2.5-2.5,6.3-3.9,10.9-3.9   c4.7,0,8.4,1.2,11.7,5.3v-4.7h8.8V738C1649.6,749,1642.3,756.9,1630.4,756.9 M1631.4,700.9c-8.1,0-9.2,7-9.2,14.1   c0,7.1,1,14,9.2,14c8.1,0,9.1-7,9.1-14C1640.5,708,1639.6,700.9,1631.4,700.9"/>
	<path class="st2" d="M1663.7,675h9.5v9.5h-9.5V675z M1663.9,693.4h9v44.8h-9V693.4z"/>
	<path class="st2" d="M1711.4,738.2v-4c-3.3,3.3-6.4,4.6-11.9,4.6c-5.6,0-9.3-1.3-12.1-4.1c-2.3-2.3-3.5-5.8-3.5-9.6   c0-7.5,5.2-12.9,15.5-12.9h11.9V709c0-5.7-2.8-8.4-9.8-8.4c-5,0-7.4,1.1-9.8,4.3l-5.9-5.6c4.3-4.9,8.7-6.5,16.1-6.5   c12.3,0,18.5,5.2,18.5,15.4v29.9H1711.4z M1711.2,718.4h-10.6c-5.3,0-8,2.4-8,6.5c0,4,2.5,6.3,8.2,6.3c3.5,0,6.1-0.3,8.5-2.5   c1.3-1.3,1.9-3.5,1.9-6.6V718.4z"/>
	<path class="st3" d="M499.1,591.5"/>
	<path class="st3" d="M580.7,509.9"/>
	<path class="st4" d="M499.1,591.5"/>
	<path class="st4" d="M580.7,509.8L580.7,509.8L580.7,509.8z"/>
	<path class="st2" d="M300.5,479.7c-26.3-39-35.2-111.9-35.2-111.9c19.3,69.4,35.8,93.5,46.8,103V96.4l-34.4-34.9H50.8v530h245.4   c0.4-33.9,1-32.5,13.3-93.8C305.3,493.1,300.5,479.7,300.5,479.7 M277.9,193.5c0.3,0.6,0.6,1.2,0.8,1.9c7.9,22.4,2,50.5-17.7,84.3   c-8.6-12.2-12.3-24.4-13-35.9c-2.2-34.9,23-63,23-63c2.2,3,4,6.2,5.6,9.5C277.1,191.4,277.5,192.5,277.9,193.5 M197.1,127.7   c26.4,3.1,43.5,25.7,51.2,67.9c0,0-0.1,0.1-0.1,0.1C246.1,195.7,212.6,195.8,197.1,127.7 M191.8,232.3   c60.6,3.8,83.7,88.9,83.7,88.9c-1.2,0.2-2.3,0.3-3.4,0.4C231.9,324.6,203.8,262.6,191.8,232.3 M120,130.9c0,0,19.3,11.1,26.5,39.1   c0.3,1.3,0.5,2.9,0.8,4.3c0.2,1.3,0.6,2.4,0.8,3.8c1.7,11.3,1.4,25-2.4,41.3c-21.1-11.4-31.2-30.8-30.4-58.4   C115.7,151.8,117.2,141.8,120,130.9 M92.1,224c52.7-27.9,107.4,28.7,107.4,28.7h0l0,0C172.1,271.6,141.1,260.4,92.1,224L92.1,224z    M234,307c0,21.7-22.4,31.1-65.7,27.2h0h0C191.8,288.4,234,307,234,307"/>
	<path class="st5" d="M580.7,506.8V61.5H353.9l-34.4,34.9V453c12.1-50,27.6-100.8,44.3-150.2c0,0-53.8,196.8-28.3,288.7h160.6v-84.7   H580.7z M494.4,161.8c0,0,3.1,14.8,1.7,31.3c-0.1,0.7-0.2,1.3-0.2,2c-0.1,1.4-0.3,2.8-0.5,4.2c-0.2,1.5-0.6,2.9-0.9,4.4   c-0.1,0.6-0.2,1.2-0.3,1.8c-3,12.4-9.6,23.8-22.7,28.9c-2.3-9.5-3.6-18.1-3.8-25.9C466.9,185.2,475.9,169.6,494.4,161.8    M379.6,173.5c6.5-33.8,22.1-48.9,46.9-45.2c0,0,0,0.2-0.1,0.5C425.5,133.9,416.9,174.6,379.6,173.5 M359.8,148   c0,0,21.1,29.3,20.2,65.5c-0.4,12.1-3.1,25-9.9,37.9c-14.9-28.8-22.5-52.3-22.8-70.5C347.1,166.7,351.3,155.7,359.8,148    M356.1,289.7L356.1,289.7L356.1,289.7c24.3-73.1,76.7-60.1,76.7-60.1v0.1C414.2,276.3,388.6,296.2,356.1,289.7 M457.6,335.9   c0,0-47.6,0.8-60.4-45.4v-0.1C424.5,290.8,444.6,306,457.6,335.9 M432.9,249.1L432.9,249.1L432.9,249.1   c52.4-28.2,86.4,6.4,86.4,6.4v0C481.7,275.1,452.9,273,432.9,249.1"/>
	<polygon class="st2" points="502.1,512.9 502.1,584.2 573.5,512.9  "/>
	<path class="st6" d="M145.8,219.4c3.8-16.3,4-30,2.4-41.3C149.8,189.4,149.5,203.1,145.8,219.4c-21.1-11.4-31.2-30.8-30.4-58.4   C114.5,188.5,124.6,208,145.8,219.4"/>
	<path class="st6" d="M146.5,170c0.3,1.3,0.5,2.9,0.8,4.3C147,172.8,146.8,171.3,146.5,170"/>
	<path class="st6" d="M272.1,321.6c-40.3,3.1-68.3-59-80.3-89.2C203.8,262.6,231.9,324.6,272.1,321.6"/>
	<path class="st6" d="M168.3,334.2L168.3,334.2c43.3,4,65.6-5.5,65.6-27.2C233.9,328.7,211.6,338.2,168.3,334.2"/>
	<path class="st6" d="M261,279.7c-8.5-12.2-12.3-24.4-13-35.9C248.7,255.3,252.4,267.5,261,279.7c19.7-33.8,25.6-61.9,17.7-84.3   C286.6,217.8,280.7,245.9,261,279.7"/>
	<path class="st6" d="M276.6,190.4c0.5,1,0.9,2.1,1.3,3.1C277.5,192.5,277.1,191.4,276.6,190.4"/>
	<path class="st6" d="M248.2,195.7c-2.1,0-35.6,0.1-51.1-67.9C212.6,195.8,246.1,195.7,248.2,195.7"/>
	<path class="st6" d="M199.5,252.7L199.5,252.7c-27.4,18.8-58.5,7.7-107.3-28.7h-0.1C141.1,260.4,172.1,271.6,199.5,252.7"/>
	<path class="st6" d="M147.3,174.3c0.2,1.3,0.6,2.4,0.8,3.8C147.9,176.7,147.6,175.5,147.3,174.3"/>
	<path class="st6" d="M146.5,170c-7.2-28.1-26.5-39.1-26.5-39.1c-2.7,11-4.3,21-4.6,30.1c0.3-9.2,1.9-19.2,4.6-30.1   C120,130.9,139.3,141.9,146.5,170"/>
	<path class="st6" d="M275.5,321.2c-1.2,0.2-2.2,0.3-3.4,0.4C273.3,321.5,274.4,321.4,275.5,321.2c0,0-23.1-85-83.7-88.9   C252.4,236.2,275.5,321.2,275.5,321.2"/>
	<path class="st6" d="M168.3,334.2L168.3,334.2C191.8,288.4,234,307,234,307S191.8,288.4,168.3,334.2"/>
	<path class="st6" d="M248,243.8c-2.2-34.9,23-63,23-63c2.2,3,4,6.2,5.6,9.5c-1.5-3.3-3.4-6.5-5.6-9.5   C271,180.9,245.8,209,248,243.8"/>
	<path class="st6" d="M277.9,193.5c0.3,0.6,0.6,1.2,0.8,1.9C278.5,194.8,278.1,194.1,277.9,193.5"/>
	<path class="st6" d="M248.3,195.6c-7.7-42.1-24.7-64.8-51.2-67.9C223.6,130.8,240.6,153.5,248.3,195.6"/>
	<path class="st6" d="M199.5,252.7L199.5,252.7c0,0-54.7-56.6-107.4-28.7l0.1,0C144.6,196.2,199.2,252.4,199.5,252.7"/>
	<path class="st6" d="M397.2,290.4L397.2,290.4c12.9,46.3,60.4,45.4,60.4,45.4C457.5,335.9,410.1,336.6,397.2,290.4"/>
	<path class="st6" d="M495.3,199.3c-0.2,1.5-0.6,2.9-0.9,4.4C494.7,202.3,495,200.8,495.3,199.3"/>
	<path class="st6" d="M471.3,234.4c13.2-5,19.7-16.5,22.7-28.9C491,217.9,484.5,229.4,471.3,234.4c-2.3-9.5-3.6-18.1-3.8-25.9   C467.7,216.3,469,224.9,471.3,234.4"/>
	<path class="st6" d="M496,193.1c-0.1,0.7-0.2,1.3-0.2,2C495.8,194.4,496,193.8,496,193.1"/>
	<path class="st6" d="M432.9,249.1L432.9,249.1c19.9,23.9,48.8,26.1,86.3,6.4v0C481.7,275.1,452.9,273,432.9,249.1"/>
	<path class="st6" d="M426.4,128.8c-1,5.1-9.5,45.7-46.8,44.7C416.9,174.6,425.5,133.9,426.4,128.8"/>
	<path class="st6" d="M432.8,229.7L432.8,229.7c-18.6,46.5-44.2,66.5-76.6,60l-0.1,0.1C388.6,296.2,414.2,276.3,432.8,229.7"/>
	<path class="st6" d="M370.2,251.3c6.8-12.9,9.5-25.7,9.9-37.9C379.7,225.6,377,238.4,370.2,251.3c-14.9-28.8-22.5-52.3-22.8-70.5   C347.7,199,355.3,222.5,370.2,251.3"/>
	<path class="st6" d="M397.2,290.4L397.2,290.4c27.3,0.5,47.4,15.7,60.4,45.5C444.6,306,424.5,290.8,397.2,290.4"/>
	<path class="st6" d="M495.8,195.1c-0.1,1.4-0.3,2.8-0.5,4.2C495.5,197.9,495.7,196.5,495.8,195.1"/>
	<path class="st6" d="M494.4,161.8c0,0,3.1,14.8,1.7,31.3C497.4,176.6,494.4,161.8,494.4,161.8c-18.5,7.8-27.4,23.4-26.8,46.7   C467,185.2,475.9,169.6,494.4,161.8"/>
	<path class="st6" d="M494.4,203.7c-0.1,0.6-0.2,1.2-0.3,1.8C494.2,204.9,494.3,204.3,494.4,203.7"/>
	<path class="st6" d="M432.9,249.1L432.9,249.1c52.3-28,86.2,6.2,86.4,6.4C519.3,255.5,485.3,220.9,432.9,249.1"/>
	<path class="st6" d="M426.5,128.3c-24.8-3.7-40.4,11.4-46.9,45.2C386.1,139.7,401.8,124.6,426.5,128.3"/>
	<path class="st6" d="M432.8,229.7L432.8,229.7c0-0.1-52.3-13-76.7,60h0.1C380.4,216.7,432.7,229.7,432.8,229.7"/>
	<path class="st6" d="M380.1,213.5c0.9-36.2-20.2-65.5-20.2-65.5c-8.6,7.7-12.7,18.7-12.5,32.9c-0.2-14.2,3.9-25.1,12.5-32.9   C359.8,148,380.9,177.3,380.1,213.5"/>
</g>
</svg>